<svg width="24" height="24" viewBox="0 0 24 24" fill="none" xmlns="http://www.w3.org/2000/svg">
<path d="M12 23.3467C18.2666 23.3467 23.4551 18.147 23.4551 11.8916C23.4551 5.625 18.2554 0.436523 11.9888 0.436523C5.7334 0.436523 0.544922 5.625 0.544922 11.8916C0.544922 18.147 5.74463 23.3467 12 23.3467ZM12 15.71C8.61963 15.71 6.02539 16.9229 4.87988 18.2705C3.375 16.5747 2.46533 14.3511 2.46533 11.8916C2.46533 6.59082 6.68799 2.3457 11.9888 2.3457C17.2896 2.3457 21.5347 6.59082 21.5459 11.8916C21.5571 14.3511 20.6362 16.5859 19.1201 18.2705C17.9858 16.9229 15.3804 15.71 12 15.71ZM12 13.8008C14.1675 13.8232 15.8521 11.9814 15.8521 9.56689C15.8521 7.29834 14.1562 5.42285 12 5.42285C9.84375 5.42285 8.13672 7.29834 8.14795 9.56689C8.15918 11.9814 9.84375 13.7783 12 13.8008Z" fill="#007AFF"/>
</svg>
