<svg width="20" height="19" viewBox="0 0 20 19" fill="none" xmlns="http://www.w3.org/2000/svg">
<path d="M4.31396 18.0752C4.6543 18.3408 5.08594 18.2495 5.60059 17.876L9.9917 14.647L14.3911 17.876C14.9058 18.2495 15.3291 18.3408 15.6777 18.0752C16.0181 17.8179 16.0928 17.3945 15.8853 16.7886L14.1504 11.6255L18.583 8.43799C19.0977 8.07275 19.3052 7.69092 19.1724 7.27588C19.0396 6.87744 18.6494 6.67822 18.0103 6.68652L12.5732 6.71973L10.9214 1.53174C10.7222 0.91748 10.4233 0.610352 9.9917 0.610352C9.56836 0.610352 9.26953 0.91748 9.07031 1.53174L7.41846 6.71973L1.98145 6.68652C1.34229 6.67822 0.952148 6.87744 0.819336 7.27588C0.678223 7.69092 0.894043 8.07275 1.40869 8.43799L5.84131 11.6255L4.10645 16.7886C3.89893 17.3945 3.97363 17.8179 4.31396 18.0752ZM5.50928 16.4316C5.49268 16.415 5.50098 16.4067 5.50928 16.3569L7.16113 11.6089C7.27734 11.2852 7.21094 11.0278 6.92041 10.8286L2.78662 7.97314C2.74512 7.94824 2.73682 7.93164 2.74512 7.90674C2.75342 7.88184 2.77002 7.88184 2.81982 7.88184L7.8418 7.97314C8.18213 7.98145 8.39795 7.84033 8.50586 7.5L9.9502 2.69385C9.9585 2.64404 9.9751 2.62744 9.9917 2.62744C10.0166 2.62744 10.0332 2.64404 10.0415 2.69385L11.4858 7.5C11.5938 7.84033 11.8096 7.98145 12.1499 7.97314L17.1719 7.88184C17.2217 7.88184 17.2383 7.88184 17.2466 7.90674C17.2549 7.93164 17.2383 7.94824 17.2051 7.97314L13.0713 10.8286C12.7808 11.0278 12.7144 11.2852 12.8306 11.6089L14.4824 16.3569C14.4907 16.4067 14.499 16.415 14.4824 16.4316C14.4658 16.4565 14.4409 16.4399 14.4077 16.415L10.415 13.3687C10.1494 13.1611 9.84229 13.1611 9.57666 13.3687L5.58398 16.415C5.55078 16.4399 5.52588 16.4565 5.50928 16.4316Z" fill="#800000"/>
</svg>
